<svg version="1.1"
     xmlns="http://www.w3.org/2000/svg"
	 width="20px" height="20px"
     viewBox="0 0 20 20">

		<path d="M18,11.9v3c0,0.1-0.1,0.2-0.3,0.2H17v0.5c0,0.8-0.7,1.5-1.5,1.5c-0.8,0-1.5-0.7-1.5-1.5v-0.5H6v0.5c0,0.8-0.7,1.5-1.5,1.5
		S3,16.5,3,15.7v-0.5H2.2c-0.1,0-0.3-0.1-0.3-0.2v-3c0-1,0.8-1.8,1.8-1.8H4l0.8-3.3C5,5.9,6,5.1,7,5.1h1V3.4c0-0.1,0.1-0.3,0.3-0.3
		h3.5c0.1,0,0.3,0.1,0.3,0.3v1.8h1c1,0,2,0.7,2.2,1.7l0.8,3.3h0.2C17.2,10.2,18,10.9,18,11.9z M5.7,12.7c0-0.7-0.6-1.3-1.3-1.3
		S3.2,12,3.2,12.7s0.6,1.3,1.3,1.3S5.7,13.4,5.7,12.7z M14,10.2l-0.7-2.8c0-0.1-0.2-0.2-0.3-0.2H7c-0.1,0-0.3,0.1-0.3,0.2L6,10.2H14
		z M16.8,12.7c0-0.7-0.6-1.3-1.3-1.3c-0.7,0-1.3,0.6-1.3,1.3s0.6,1.3,1.3,1.3C16.2,13.9,16.8,13.4,16.8,12.7z"/>

</svg>
